<?xml version="1.0" encoding="utf-8"?>
<!-- Generator: Adobe Illustrator 25.2.0, SVG Export Plug-In . SVG Version: 6.00 Build 0)  -->
<svg version="1.1" xmlns="http://www.w3.org/2000/svg" xmlns:xlink="http://www.w3.org/1999/xlink" x="0px" y="0px"
	 viewBox="0 0 1366 768" enable-background="new 0 0 1366 768" xml:space="preserve">
<g id="sky_and_star_layer">
	<g id="skylayer">
		<rect id="sky" x="-1" fill="#081E7C" width="1368" height="757.87"/>
	</g>
	<g id="star1layer">
		<circle id="star1" fill="#FFFF00" cx="1052.5" cy="518.5" r="12.5"/>
	</g>
	<g id="star3layer">
		<circle id="star3shadow" fill="#FF33FF" cx="584.5" cy="318.5" r="12.5"/>
		<circle id="star3ft" fill="#FFFF00" cx="586.5" cy="316.5" r="12.5"/>
	</g>
	<g id="star6_layer">
		<circle id="star6" fill="#FFFF00" cx="114.5" cy="298.5" r="12.5"/>
	</g>
	<g id="star2layer">
		<circle id="star2shadow" fill="#FF33FF" cx="687.5" cy="495.5" r="12.5"/>
		<circle id="star2ft" fill="#FFFF00" cx="689.26" cy="493.21" r="12.5"/>
	</g>
	<g id="star4layer">
		<circle id="star4shdow" fill="#00FFFF" cx="366.5" cy="316.5" r="12.5"/>
		<circle id="star4ft" fill="#FFFF00" cx="370.5" cy="311.5" r="12.5"/>
	</g>
	<g id="star5layer">
		<circle id="star5" fill="#FFFF00" cx="241.5" cy="480.5" r="12.5"/>
	</g>
	<g id="star6_2_">
		<circle id="star6_layer_1_" fill="#FF33FF" cx="703.5" cy="78.5" r="12.5"/>
		<circle id="star6_1_" fill="#FFFF00" cx="707.5" cy="76.5" r="12.5"/>
	</g>
</g>
<g id="blue_moon_glow_layer">
	<circle id="blue_moon_glow" fill="#00FFFF" cx="1112" cy="240.5" r="211"/>
</g>
<g id="pink_moon_glow_layer">
	<circle id="pink_moon_glow_1_" fill="#FF99FF" cx="1066.83" cy="255.75" r="215.75"/>
</g>
<g id="moon_face_layer">
	<circle id="moon_1_" fill="#CCFFFF" cx="1080.5" cy="260.5" r="211"/>
</g>
<g id="moon_eyes_layer">
	
		<ellipse id="lfeye_1_" transform="matrix(0.9682 -0.2501 0.2501 0.9682 -19.1585 277.2745)" fill="#FFFFFF" cx="1081.44" cy="214.02" rx="25.5" ry="58"/>
	
		<ellipse id="rteye_1_" transform="matrix(0.9682 -0.2501 0.2501 0.9682 -29.6926 247.2143)" fill="#FFFFFF" cx="957.89" cy="240.44" rx="25.5" ry="58"/>
	
		<ellipse id="rtpupil_1_" transform="matrix(0.9682 -0.2501 0.2501 0.9682 -36.899 246.6438)" fill="#FF99FF" cx="952.04" cy="268.51" rx="16.35" ry="37.2"/>
	
		<ellipse id="lfpupil_1_" transform="matrix(0.9682 -0.2501 0.2501 0.9682 -25.8651 276.3351)" fill="#FF99FF" cx="1074.39" cy="239.94" rx="16.35" ry="37.2"/>
</g>
<g id="moon_mouth_layer">
	<path id="moon_mouth" fill="#CCFFFF" stroke="#000000" stroke-miterlimit="10" d="M1040,391c-50.83-3.49-100.24-29.08-98-42
		c1.94-11.23,41.99-10,118-29c0,0,14.02-3.68,33-10c27.37-9.11,41.27-13.83,52-22c18.23-13.88,23.15-28.84,29-27
		c6.51,2.05,6.35,21.34,5,33c-4.55,39.29-31.15,65.24-33,67C1109.35,395.77,1059.29,392.33,1040,391z"/>
</g>
<g id="water_layer">
	<g id="water">
		<rect y="597" fill="#00FFFF" width="1366" height="170"/>
	</g>
</g>
<g id="blue_moon_shadow_layer">
	<g id="blue_moon_shadow_1_">
		<path fill="#081E7C" d="M1256.4,645.65c0.05,0.04,0.24,0.19,0.56,0.34c2.84,1.37,8.61-0.9,10.02-1.03
			c9.98-0.94,25.57-2.13,44.44-2.41c29.7-0.43,33.46,0.92,35.57,2.06c5.48,2.99,6.62,7.15,8.34,13.42
			c3.44,12.56-3.11,16.77,2.22,25.46c4.4,7.17,10.41,6.84,10.21,10.15c-0.68,11.05-67.58,18.74-163.05,29.3
			c-32.72,3.62-283.23,31.31-343.91,15.68c-7.16-1.85-10.55-4-11.38-6.37c-4.25-12.23,38.44-31.72,36.03-33.95
			c-2.2-2.04-35.75,17.67-55.69,10.66c-9.07-3.19-7.63-9.21-16.3-13.08c-15.71-7.01-38.45,4.68-62.13,10.32
			c-51.2,12.19-75.04-11.48-158.9-10.32c-27.64,0.38-45.23,3.23-68.7,6.35c-240.02,31.89-441.01,4.92-459.01-9.77
			c-16.16-13.18,179.91-34.62,212.38-38.17c4.26-0.47,14.99-0.99,29.03-3.09c30.47-4.56,50.74-11.87,58.87-14.51
			c53.3-17.32,118.07-7.27,226.66-8.5c1.72-0.02,6.94-0.1,13.98-0.11c14.53-0.02,7.47,0.2,56.69,0.69
			c17.41,0.17,62.7,0.58,152.27,0.69c49.48,0.06,74.21,0.09,81.14,0c107.08-1.33,106.42-0.25,131.16,0
			c34.94,0.35,63.12,1.04,119.49,2.41c22.58,0.55,60.67-1.87,78.92,2.06C1236.79,636.43,1254.39,644.07,1256.4,645.65z"/>
		<rect x="424.39" y="626.38" fill="#081E7C" width="943.04" height="69.51"/>
	</g>
</g>
<g id="light_pink_moon_shadow_layer">
	<g id="light_pink_moon_shadow_1_">
		<path fill="#FF99FF" d="M1192.4,635.03c0.05,0.04,0.24,0.19,0.56,0.34c2.84,1.37,8.61-0.9,10.02-1.03
			c9.98-0.94,25.57-2.13,44.44-2.41c29.7-0.43,33.46,0.92,35.57,2.06c5.48,2.99,6.62,7.15,8.34,13.42
			c3.44,12.56-3.11,16.77,2.22,25.46c4.4,7.17,10.41,6.84,10.21,10.15c-0.68,11.05-67.58,18.74-163.05,29.3
			c-32.72,3.62-283.23,31.31-343.91,15.68c-7.16-1.85-10.55-4-11.38-6.37c-4.25-12.23,38.44-31.72,36.03-33.95
			c-2.2-2.04-35.75,17.67-55.69,10.66c-9.07-3.19-7.63-9.21-16.3-13.08c-15.71-7.01-38.45,4.68-62.13,10.32
			c-51.2,12.19-75.04-11.48-158.9-10.32c-27.64,0.38-45.23,3.23-68.7,6.35c-240.02,31.89-441.01,4.92-459.01-9.77
			c-16.16-13.18,179.91-34.62,212.38-38.17c4.26-0.47,14.99-0.99,29.03-3.09c30.47-4.56,50.74-11.87,58.87-14.51
			c53.3-17.32,118.07-7.27,226.66-8.5c1.72-0.02,6.94-0.1,13.98-0.11c14.53-0.02,7.47,0.2,56.69,0.69
			c17.41,0.17,62.7,0.58,152.27,0.69c49.48,0.06,74.21,0.09,81.14,0c107.08-1.33,106.42-0.25,131.16,0
			c34.94,0.35,63.12,1.04,119.49,2.41c22.58,0.55,60.67-1.87,78.92,2.06C1172.79,625.81,1190.39,633.45,1192.4,635.03z"/>
		<rect x="360.39" y="615.76" fill="#FF99FF" width="943.04" height="69.51"/>
	</g>
</g>
<g id="hot_pink_moon_shadaw_layer">
	<g id="pink_shadow">
		<path fill="#FF33FF" d="M1254.63,614.27c0.05,0.04,0.24,0.19,0.56,0.34c2.84,1.37,8.61-0.9,10.02-1.03
			c9.98-0.94,25.57-2.13,44.44-2.41c29.7-0.43,33.46,0.92,35.57,2.06c5.48,2.99,6.62,7.15,8.34,13.42
			c3.44,12.56-3.11,16.77,2.22,25.46c4.4,7.17,10.41,6.84,10.21,10.15c-0.68,11.05-67.58,18.74-163.05,29.3
			c-32.72,3.62-283.23,31.31-343.91,15.68c-7.16-1.85-10.55-4-11.38-6.37c-4.25-12.23,38.44-31.72,36.03-33.95
			c-2.2-2.04-35.75,17.67-55.69,10.66c-9.07-3.19-7.63-9.21-16.3-13.08c-15.71-7.01-38.45,4.68-62.13,10.32
			c-51.2,12.19-75.04-11.48-158.9-10.32c-27.64,0.38-45.23,3.23-68.7,6.35c-240.02,31.89-441.01,4.92-459.01-9.77
			c-16.16-13.18,179.91-34.62,212.38-38.17c4.26-0.47,14.99-0.99,29.03-3.09c30.47-4.56,50.74-11.87,58.87-14.51
			c53.3-17.32,118.07-7.27,226.66-8.5c1.72-0.02,6.94-0.1,13.98-0.11c14.53-0.02,7.47,0.2,56.69,0.69
			c17.41,0.17,62.7,0.58,152.27,0.69c49.48,0.06,74.21,0.09,81.14,0c107.08-1.33,106.42-0.25,131.16,0
			c34.94,0.35,63.12,1.04,119.48,2.41c22.58,0.55,60.67-1.87,78.92,2.06C1235.02,605.05,1252.62,612.69,1254.63,614.27z"/>
		<rect x="422.62" y="595" fill="#FF33FF" width="943.04" height="69.51"/>
	</g>
</g>
</svg>
